<?xml version="1.0" encoding="UTF-8" standalone="no"?>
<svg
   width="16"
   height="16"
   version="1.1"
   id="svg1"
   sodipodi:docname="FancyGradient.svg"
   inkscape:version="1.3.2 (091e20e, 2023-11-25, custom)"
   inkscape:export-filename="FancyGradient.png"
   inkscape:export-xdpi="768"
   inkscape:export-ydpi="768"
   xmlns:inkscape="http://www.inkscape.org/namespaces/inkscape"
   xmlns:sodipodi="http://sodipodi.sourceforge.net/DTD/sodipodi-0.dtd"
   xmlns="http://www.w3.org/2000/svg"
   xmlns:svg="http://www.w3.org/2000/svg">
  <defs
     id="defs1" />
  <sodipodi:namedview
     id="namedview1"
     pagecolor="#ffffff"
     bordercolor="#000000"
     borderopacity="0.25"
     inkscape:showpageshadow="2"
     inkscape:pageopacity="0.0"
     inkscape:pagecheckerboard="0"
     inkscape:deskcolor="#d1d1d1"
     inkscape:zoom="38.15625"
     inkscape:cx="9.9066339"
     inkscape:cy="8.4258804"
     inkscape:window-width="2498"
     inkscape:window-height="1417"
     inkscape:window-x="54"
     inkscape:window-y="-8"
     inkscape:window-maximized="1"
     inkscape:current-layer="svg1"
     inkscape:export-bgcolor="#ffffff00" />
  <path
     fill="#e0e0e0"
     d="M3 1a2 2 0 0 0-2 2v10a2 2 0 0 0 2 2h10a2 2 0 0 0 2-2V3a2 2 0 0 0-2-2zm0 2h10v10H3zm4.5 2.5h1v1h-1zm-4-2v9h3v-1h1v-1h-1v-1h1v-1h-1v-1h1v-1h-1v-1h1v-1h-1v-1zm4 0h1v1h-1zm0 6h1v1h-1zm0-2h1v1h-1zm0 4h1v1h-1zm1-7h1v1h-1zm0 2h1v1h-1zm0 2h1v1h-1zm0 2h1v1h-1z"
     id="path1" />
  <path
     style="fill:#ff0000;stroke:none;stroke-width:0.838657"
     d="M 3.5118755,8 V 3.5053235 H 5.005733 6.4995905 V 4.003276 4.5012285 H 6.997543 7.4954955 V 4.999181 5.4971335 H 6.997543 6.4995905 V 6.001638 6.5061425 H 6.997543 7.4954955 V 6.997543 7.4889435 H 6.997543 6.4995905 V 8 8.5110565 H 6.997543 7.4954955 V 9.002457 9.4938575 H 6.997543 6.4995905 V 9.998362 10.502867 H 6.997543 7.4954955 v 0.497952 0.497952 H 6.997543 6.4995905 v 0.497953 0.497952 H 5.005733 3.5118755 Z"
     id="path2" />
  <path
     style="fill:#ffff00;stroke:none;stroke-width:0.838657"
     d="M 7.5085995,3.996724 V 3.5053235 H 8 8.4914005 V 3.996724 4.4881245 H 8 7.5085995 Z"
     id="path3" />
  <path
     style="fill:#ffff00;stroke:none;stroke-width:0.838657"
     d="M 7.5085995,6.001638 V 5.5102375 H 8 8.4914005 V 6.001638 6.4930385 H 8 7.5085995 Z"
     id="path4" />
  <path
     style="fill:#ffff00;stroke:none;stroke-width:0.838657"
     d="M 7.5085995,8 V 7.5020475 H 8 8.4914005 V 8 8.4979525 H 8 7.5085995 Z"
     id="path5" />
  <path
     style="fill:#ffff00;stroke:none;stroke-width:0.838657"
     d="M 7.5085995,9.998362 V 9.5069615 H 8 8.4914005 v 0.4914005 0.4914 H 8 7.5085995 Z"
     id="path6" />
  <path
     style="fill:#ffff00;stroke:none;stroke-width:0.838657"
     d="m 7.5085995,12.003276 v -0.4914 H 8 8.4914005 v 0.4914 0.4914 H 8 7.5085995 Z"
     id="path7" />
  <path
     style="fill:#00ffff;stroke:none;stroke-width:0.838657"
     d="M 9.5135135,3.996724 V 3.5053235 h 0.4914015 0.4914 V 3.996724 4.4881245 h -0.4914 -0.4914015 z"
     id="path3-4" />
  <path
     style="fill:#00ffff;stroke:none;stroke-width:0.838657"
     d="M 9.5135135,6.001638 V 5.5102375 h 0.4914015 0.4914 V 6.001638 6.4930385 h -0.4914 -0.4914015 z"
     id="path4-6" />
  <path
     style="fill:#00ffff;stroke:none;stroke-width:0.838657"
     d="m 9.5135135,8.0000005 v -0.497953 h 0.4914015 0.4914 v 0.497953 0.497952 h -0.4914 -0.4914015 z"
     id="path5-8" />
  <path
     style="fill:#00ffff;stroke:none;stroke-width:0.838657"
     d="m 9.5135135,9.9983625 v -0.491401 h 0.4914015 0.4914 v 0.4914 0.4914005 h -0.4914 -0.4914015 z"
     id="path6-7" />
  <path
     style="fill:#00ffff;stroke:none;stroke-width:0.838657"
     d="m 9.5135135,12.003277 v -0.4914 h 0.4914015 0.4914 v 0.4914 0.4914 h -0.4914 -0.4914015 z"
     id="path7-6" />
  <path
     style="fill:#00ff00;stroke:none;stroke-width:0.838657"
     d="M 8.5045045,4.999181 V 4.5012285 H 9.002457 9.5004095 V 4.999181 5.4971335 H 9.002457 8.5045045 Z"
     id="path8" />
  <path
     style="fill:#00ff00;stroke:none;stroke-width:0.838657"
     d="M 8.5045045,6.997543 V 6.5061425 H 9.002457 9.5004095 V 6.997543 7.4889435 H 9.002457 8.5045045 Z"
     id="path9" />
  <path
     style="fill:#00ff00;stroke:none;stroke-width:0.838657"
     d="M 8.5045045,9.002457 V 8.5110565 H 9.002457 9.5004095 V 9.002457 9.4938575 H 9.002457 8.5045045 Z"
     id="path10" />
  <path
     style="fill:#00ff00;stroke:none;stroke-width:0.838657"
     d="M 8.5045045,11.000819 V 10.502867 H 9.002457 9.5004095 v 0.497952 0.497952 H 9.002457 8.5045045 Z"
     id="path11" />
  <path
     style="fill:#ff00ff;stroke:none;stroke-width:0.838657"
     d="M 11.518428,3.996724 V 3.5053235 h 0.491402 0.4914 V 3.996724 4.4881245 h -0.4914 -0.491402 z"
     id="path3-4-5" />
  <path
     style="fill:#ff00ff;stroke:none;stroke-width:0.838657"
     d="M 11.518428,6.001638 V 5.5102375 h 0.491402 0.4914 V 6.001638 6.4930385 h -0.4914 -0.491402 z"
     id="path4-6-9" />
  <path
     style="fill:#ff00ff;stroke:none;stroke-width:0.838657"
     d="m 11.518428,8.0000005 v -0.497953 h 0.491402 0.4914 v 0.497953 0.497952 h -0.4914 -0.491402 z"
     id="path5-8-0" />
  <path
     style="fill:#ff00ff;stroke:none;stroke-width:0.838657"
     d="m 11.518428,9.9983625 v -0.491401 h 0.491402 0.4914 v 0.4914 0.4914015 h -0.4914 -0.491402 z"
     id="path6-7-0" />
  <path
     style="fill:#ff00ff;stroke:none;stroke-width:0.838657"
     d="m 11.518428,12.003277 v -0.491399 h 0.491402 0.4914 v 0.491399 0.491401 h -0.4914 -0.491402 z"
     id="path7-6-3" />
  <path
     style="fill:#0000ff;stroke:none;stroke-width:0.838657"
     d="M 10.509419,4.999181 V 4.5012285 h 0.497953 0.497952 V 4.999181 5.4971335 h -0.497952 -0.497953 z"
     id="path8-2" />
  <path
     style="fill:#0000ff;stroke:none;stroke-width:0.838657"
     d="M 10.509419,6.997543 V 6.5061425 h 0.497953 0.497952 V 6.997543 7.4889435 h -0.497952 -0.497953 z"
     id="path9-6" />
  <path
     style="fill:#0000ff;stroke:none;stroke-width:0.838657"
     d="m 10.509419,9.0024575 v -0.491401 h 0.497953 0.497952 v 0.491401 0.4914 h -0.497952 -0.497953 z"
     id="path10-3" />
  <path
     style="fill:#0000ff;stroke:none;stroke-width:0.838657"
     d="m 10.509419,11.000819 v -0.497951 h 0.497953 0.497952 v 0.497951 0.497953 h -0.497952 -0.497953 z"
     id="path11-4" />
</svg>
